<!-- The canonical MIDI Lab mark, shared by MidiLabBrand and the favicon. -->
<svg xmlns="http://www.w3.org/2000/svg" viewBox="0 0 56 56" fill="none">
	<defs>
		<linearGradient id="edge" x1="14" y1="0" x2="38" y2="56" gradientUnits="userSpaceOnUse">
			<stop stop-color="#62676a" />
			<stop offset=".42" stop-color="#303436" />
			<stop offset="1" stop-color="#151719" />
		</linearGradient>
		<linearGradient id="face" x1="15" y1="1" x2="40" y2="55" gradientUnits="userSpaceOnUse">
			<stop stop-color="#363a3d" />
			<stop offset=".5" stop-color="#272b2e" />
			<stop offset="1" stop-color="#1b1e20" />
		</linearGradient>
		<linearGradient id="note" x1="28" y1="12" x2="28" y2="44" gradientUnits="userSpaceOnUse">
			<stop stop-color="#86e3b6" />
			<stop offset="1" stop-color="#4fc68d" />
		</linearGradient>
	</defs>
	<rect x="1" y="1" width="54" height="54" rx="14" fill="url(#edge)" />
	<rect x="2" y="2" width="52" height="52" rx="13" fill="url(#face)" />
	<path
		d="M29 12c3.4 3.6 6.4 4.9 10.4 6.8 3.8 1.8 5.6 4.2 5.6 7.6 0 3.1-1.8 6.1-5.4 8.3 1.7-2.7 2.2-4.6 1.4-6.4-1-2.3-4.5-3.6-8-5.2V39c0 4.3-4.1 7.6-9.2 7.6-4.6 0-7.8-2.5-7.8-5.7 0-4.2 4.5-7.8 9.8-7.8 1.1 0 2.2.2 3.2.6V12Z"
		fill="#111e19"
		transform="translate(0 1)"
	/>
	<path
		d="M29 12c3.4 3.6 6.4 4.9 10.4 6.8 3.8 1.8 5.6 4.2 5.6 7.6 0 3.1-1.8 6.1-5.4 8.3 1.7-2.7 2.2-4.6 1.4-6.4-1-2.3-4.5-3.6-8-5.2V39c0 4.3-4.1 7.6-9.2 7.6-4.6 0-7.8-2.5-7.8-5.7 0-4.2 4.5-7.8 9.8-7.8 1.1 0 2.2.2 3.2.6V12Z"
		fill="url(#note)"
	/>
	<path d="M15 2.5h26" stroke="#a1a8ac" stroke-opacity=".22" stroke-linecap="round" />
</svg>
